<?xml version="1.0" encoding="utf-8"?>
<!-- Generator: Adobe Illustrator 14.0.0, SVG Export Plug-In . SVG Version: 6.00 Build 43363)  -->
<!DOCTYPE svg PUBLIC "-//W3C//DTD SVG 1.1//EN" "http://www.w3.org/Graphics/SVG/1.1/DTD/svg11.dtd">
<svg version="1.1" id="Layer_1" xmlns="http://www.w3.org/2000/svg" xmlns:xlink="http://www.w3.org/1999/xlink" width="120px" height="56px" viewBox="-60 -28 120 56">
<!--
<rect x="-60" y="-28" width="120" height="56" fill="#880"/>
-->

<path d="M -32.46398,-27 A 48,60 0 0,0 -35.99875,-23 L -45.81659,-23 A 48,60 0 0,1 -41.31779,-27" stroke="none" fill="#FFFA00" />
<path d="M -36.74724,-22 A 48,60 0 0,0 -39.29326,-18 L -50.00960,-18 A 48,60 0 0,1 -46.76922,-22" stroke="none" fill="#FFE300" />
<path d="M -39.82851,-17 A 48,60 0 0,0 -41.61142,-13 L -52.95998,-13 A 48,60 0 0,1 -50.69083,-17" stroke="none" fill="#FFC401" />
<path d="M -41.97332,-12 A 48,60 0 0,0 -43.11102, -8 L -54.86857, -8 A 48,60 0 0,1 -53.42060,-12" stroke="none" fill="#FFA202" />
<path d="M -43.32101, -7 A 48,60 0 0,0 -43.87608, -3 L -55.84228, -3 A 48,60 0 0,1 -55.13583, -7" stroke="none" fill="#FF8503" />

<path d="M -32.46398, 27 A 48,60 0 0,1 -35.99875, 23 L -45.81659, 23 A 48,60 0 0,0 -41.31779, 27" stroke="none" fill="#FF0407" />
<path d="M -36.74724, 22 A 48,60 0 0,1 -39.29326, 18 L -50.00960, 18 A 48,60 0 0,0 -46.76922, 22" stroke="none" fill="#FF0D07" />
<path d="M -39.82851, 17 A 48,60 0 0,1 -41.61142, 13 L -52.95998, 13 A 48,60 0 0,0 -50.69083, 17" stroke="none" fill="#FF2806" />
<path d="M -41.97332, 12 A 48,60 0 0,1 -43.11102,  8 L -54.86857,  8 A 48,60 0 0,0 -53.42060, 12" stroke="none" fill="#FF3E06" />
<path d="M -43.32101,  7 A 48,60 0 0,1 -43.87608,  3 L -55.84228,  3 A 48,60 0 0,0 -55.13583,  7" stroke="none" fill="#FF5405" />

<path d="M  32.46398,-27 A 48,60 0 0,1  35.99875,-23 L  45.81659,-23 A 48,60 0 0,0  41.31779,-27" stroke="none" fill="#41E8FE" />
<path d="M  36.74724,-22 A 48,60 0 0,1  39.29326,-18 L  50.00960,-18 A 48,60 0 0,0  46.76922,-22" stroke="none" fill="#36E7C6" />
<path d="M  39.82851,-17 A 48,60 0 0,1  41.61142,-13 L  52.95998,-13 A 48,60 0 0,0  50.69083,-17" stroke="none" fill="#2EE79C" />
<path d="M  41.97332,-12 A 48,60 0 0,1  43.11102, -8 L  54.86857, -8 A 48,60 0 0,0  53.42060,-12" stroke="none" fill="#24E76B" />
<path d="M  43.32101, -7 A 48,60 0 0,1  43.87608, -3 L  55.84228, -3 A 48,60 0 0,0  55.13583, -7" stroke="none" fill="#1BE73B" />

<path d="M  32.46398, 27 A 48,60 0 0,1  35.99875, 23 L  45.81659, 23 A 48,60 0 0,0  41.31779, 27" stroke="none" fill="#323232" />
<path d="M  36.74724, 22 A 48,60 0 0,1  39.29326, 18 L  50.00960, 18 A 48,60 0 0,0  46.76922, 22" stroke="none" fill="#343434" />
<path d="M  39.82851, 17 A 48,60 0 0,1  41.61142, 13 L  52.95998, 13 A 48,60 0 0,0  50.69083, 17" stroke="none" fill="#2DC3DB" />
<path d="M  41.97332, 12 A 48,60 0 0,1  43.11102,  8 L  54.86857,  8 A 48,60 0 0,0  53.42060, 12" stroke="none" fill="#24ADDC" />
<path d="M  43.32101,  7 A 48,60 0 0,1  43.87608,  3 L  55.84228,  3 A 48,60 0 0,0  55.13583,  7" stroke="none" fill="#1C9DDD" />

<path d="M -43.94497,  2 A 48,60 0 0,0 -43.94497, -2 L -55.92996, -2 A 48,60 0 0,1 -55.92996,  2" stroke="none" fill="#FF6F04" />
<path d="M  43.94497,  2 A 48,60 0 0,0  43.94497, -2 L  55.92996, -2 A 48,60 0 0,1  55.92996,  2" stroke="none" fill="#14E717" />
</svg>
