<?xml version="1.0" encoding="utf-8"?>
<!-- Generator: Adobe Illustrator 14.0.0, SVG Export Plug-In . SVG Version: 6.00 Build 43363)  -->
<!DOCTYPE svg PUBLIC "-//W3C//DTD SVG 1.1//EN" "http://www.w3.org/Graphics/SVG/1.1/DTD/svg11.dtd">
<svg version="1.1" id="Layer_1" xmlns="http://www.w3.org/2000/svg" xmlns:xlink="http://www.w3.org/1999/xlink"
	 width="120px" height="56px" viewBox="-60 -28 120 56">
<!--
<rect x="-60" y="-28" width="120" height="56" fill="#880"/>
-->

<path d="M -23.61,-27.00 A 40,32 0 0,0 -26.18,-23.00 L -32.73,-23.00 A 40,40 0 0,1 -28.51,-27.00 Z" stroke="none" fill="#FFFA00" />
<path d="M -26.73,-22.00 A 40,32 0 0,0 -28.58,-18.00 L -35.72,-18.00 A 40,40 0 0,1 -33.41,-22.00 Z" stroke="none" fill="#FFE300" />
<path d="M -28.97,-17.00 A 40,32 0 0,0 -30.26,-13.00 L -37.83,-13.00 A 40,40 0 0,1 -36.21,-17.00 Z" stroke="none" fill="#FFC401" />
<path d="M -30.53,-12.00 A 40,32 0 0,0 -31.35, -8.00 L -39.19, -8.00 A 40,40 0 0,1 -38.16,-12.00 Z" stroke="none" fill="#FFA202" />
<path d="M -31.51, -7.00 A 40,32 0 0,0 -31.91, -3.00 L -39.89, -3.00 A 40,40 0 0,1 -39.38, -7.00 Z" stroke="none" fill="#FF8503" />

<path d="M -23.61, 27.00 A 40,32 0 0,1 -26.18, 23.00 L -32.73, 23.00 A 40,40 0 0,0 -28.51, 27.00 Z" stroke="none" fill="#FF0407" />
<path d="M -26.73, 22.00 A 40,32 0 0,1 -28.58, 18.00 L -35.72, 18.00 A 40,40 0 0,0 -33.41, 22.00 Z" stroke="none" fill="#FF0D07" />
<path d="M -28.97, 17.00 A 40,32 0 0,1 -30.26, 13.00 L -37.83, 13.00 A 40,40 0 0,0 -36.21, 17.00 Z" stroke="none" fill="#FF2806" />
<path d="M -30.53, 12.00 A 40,32 0 0,1 -31.35,  8.00 L -39.19,  8.00 A 40,40 0 0,0 -38.16, 12.00 Z" stroke="none" fill="#FF3E06" />
<path d="M -31.51,  7.00 A 40,32 0 0,1 -31.91,  3.00 L -39.89,  3.00 A 40,40 0 0,0 -39.38,  7.00 Z" stroke="none" fill="#FF5405" />

<path d="M  23.61,-27.00 A 40,32 0 0,1  26.18,-23.00 L  32.73,-23.00 A 40,40 0 0,0  28.51,-27.00 Z" stroke="none" fill="#41E8FE" />
<path d="M  26.73,-22.00 A 40,32 0 0,1  28.58,-18.00 L  35.72,-18.00 A 40,40 0 0,0  33.41,-22.00 Z" stroke="none" fill="#36E7C6" />
<path d="M  28.97,-17.00 A 40,32 0 0,1  30.26,-13.00 L  37.83,-13.00 A 40,40 0 0,0  36.21,-17.00 Z" stroke="none" fill="#2EE79C" />
<path d="M  30.53,-12.00 A 40,32 0 0,1  31.35, -8.00 L  39.19, -8.00 A 40,40 0 0,0  38.16,-12.00 Z" stroke="none" fill="#24E76B" />
<path d="M  31.51, -7.00 A 40,32 0 0,1  31.91, -3.00 L  39.89, -3.00 A 40,40 0 0,0  39.38, -7.00 Z" stroke="none" fill="#1BE73B" />

<path d="M  23.61, 27.00 A 40,32 0 0,0  26.18, 23.00 L  32.73, 23.00 A 40,40 0 0,1  28.51, 27.00 Z" stroke="none" fill="#323232" />
<path d="M  26.73, 22.00 A 40,32 0 0,0  28.58, 18.00 L  35.72, 18.00 A 40,40 0 0,1  33.41, 22.00 Z" stroke="none" fill="#343434" />
<path d="M  28.97, 17.00 A 40,32 0 0,0  30.26, 13.00 L  37.83, 13.00 A 40,40 0 0,1  36.21, 17.00 Z" stroke="none" fill="#2DC3DB" />
<path d="M  30.53, 12.00 A 40,32 0 0,0  31.35,  8.00 L  39.19,  8.00 A 40,40 0 0,1  38.16, 12.00 Z" stroke="none" fill="#24ADDC" />
<path d="M  31.51,  7.00 A 40,32 0 0,0  31.91,  3.00 L  39.89,  3.00 A 40,40 0 0,1  39.38,  7.00 Z" stroke="none" fill="#1C9DDD" />

<path d="M -31.96, -2.00 A 40,32 0 0,0 -31.96,  2.00 L -39.95,  2.00 A 40,40 0 0,1 -39.95, -2.00 Z" stroke="none" fill="#FF6F04" />
<path d="M  31.96, -2.00 A 40,32 0 0,1  31.96,  2.00 L  39.95,  2.00 A 40,40 0 0,0  39.95, -2.00 Z" stroke="none" fill="#14E717" />

</svg>
