<?xml version="1.0" encoding="UTF-8" standalone="no"?>
<!-- Generator: Adobe Illustrator 14.0.0, SVG Export Plug-In . SVG Version: 6.00 Build 43363)  -->

<svg
   xmlns:dc="http://purl.org/dc/elements/1.1/"
   xmlns:cc="http://creativecommons.org/ns#"
   xmlns:rdf="http://www.w3.org/1999/02/22-rdf-syntax-ns#"
   xmlns:svg="http://www.w3.org/2000/svg"
   xmlns="http://www.w3.org/2000/svg"
   xmlns:sodipodi="http://sodipodi.sourceforge.net/DTD/sodipodi-0.dtd"
   xmlns:inkscape="http://www.inkscape.org/namespaces/inkscape"
   version="1.1"
   id="Layer_1"
   x="0px"
   y="0px"
   width="800"
   height="140"
   viewBox="0 0 800 140"
   enable-background="new 0 0 1024 480"
   xml:space="preserve"
   inkscape:version="0.48.1 "
   sodipodi:docname="futureui2_c.svg"><metadata
   id="metadata18"><rdf:RDF><cc:Work
       rdf:about=""><dc:format>image/svg+xml</dc:format><dc:type
         rdf:resource="http://purl.org/dc/dcmitype/StillImage" /></cc:Work></rdf:RDF></metadata><defs
   id="defs16" /><sodipodi:namedview
   pagecolor="#ffffff"
   bordercolor="#666666"
   borderopacity="1"
   objecttolerance="10"
   gridtolerance="10"
   guidetolerance="10"
   inkscape:pageopacity="0"
   inkscape:pageshadow="2"
   inkscape:window-width="1267"
   inkscape:window-height="741"
   id="namedview14"
   showgrid="false"
   fit-margin-top="0"
   fit-margin-left="0"
   fit-margin-right="0"
   fit-margin-bottom="0"
   inkscape:zoom="0.46875"
   inkscape:cx="422"
   inkscape:cy="-30"
   inkscape:window-x="90"
   inkscape:window-y="-9"
   inkscape:window-maximized="1"
   inkscape:current-layer="Layer_1" />
<!--
<rect x="0" y="0" width="1024" height="480" fill="#880"/>
-->
<linearGradient
   id="SVGID_1_"
   gradientUnits="userSpaceOnUse"
   x1="300.00049"
   y1="211.2827"
   x2="300.00049"
   y2="80.862099"
   gradientTransform="translate(-90,-70)">
	<stop
   offset="0"
   style="stop-color:#000000;stop-opacity:0.25"
   id="stop4" />
	<stop
   offset="1"
   style="stop-color:#000000;stop-opacity:0.58"
   id="stop6" />
</linearGradient>
<rect
   x="0"
   y="0"
   width="800"
   height="140"
   id="rect8"
   style="fill:#486790" />
<path
   d="m 800,120 -20,20 H 220 L 210,130 H 10 V 10 l 780,0 10,10 v 100 z"
   id="path10"
   inkscape:connector-curvature="0"
   style="fill:url(#SVGID_1_)" />

<polyline
   points="400,70 420,90 360,90 350,80 100,80 100,150 110,160 110,210 90,190 90,80 100,70 400,70 "
   id="polyline12"
   style="fill:#d1d9e3"
   transform="translate(-90,-70)" />
<!--
<polyline fill="#ffffff" opacity="0.75" points="400,70 420,90 360,90 350,80 100,80 100,150 110,160 110,210 90,190 90,80 100,70 400,70 "/>
-->
</svg>